<svg width="22" height="22" viewBox="0 0 22 22" fill="none" xmlns="http://www.w3.org/2000/svg">
<path fill-rule="evenodd" clip-rule="evenodd" d="M21.35 1.25707L21.2304 0.753162L20.7265 0.631287C20.4383 0.560974 19.9156 0.478943 19.0484 0.478943C17.4078 0.478943 15.3476 0.778943 13.5429 1.28051C12.5539 1.55472 11.6703 1.87816 10.9179 2.24144C10.1398 2.61644 9.50466 3.04066 9.0781 3.46722C8.68903 3.85629 8.18044 4.62738 7.56403 5.75941C7.42107 6.02191 7.27341 6.30316 7.12107 6.60316C5.87185 6.95941 4.38591 7.83832 3.75778 8.23441C2.33278 9.12738 1.17732 10.0625 0.671065 10.7328C0.51169 10.9438 0.460128 11.218 0.532784 11.4735C0.60544 11.7289 0.79294 11.9352 1.04138 12.0289C1.11399 12.0571 1.18962 12.0858 1.26779 12.1154C1.35865 12.1499 1.45296 12.1857 1.54997 12.2235L1.65064 12.2617C2.45127 12.5658 3.40496 12.928 4.15153 13.2946L4.14919 13.2993L8.66325 17.818C9.03915 18.5859 9.41505 19.5762 9.72619 20.396L9.74138 20.436C9.80935 20.6164 9.87497 20.7875 9.93591 20.9446C10.032 21.193 10.2359 21.3805 10.4914 21.4532C10.5687 21.4743 10.6461 21.486 10.7234 21.486C10.9039 21.486 11.0843 21.4274 11.232 21.3149C11.9023 20.8086 12.8375 19.6532 13.7304 18.2282C14.1242 17.5977 15.0031 16.1164 15.364 14.8649C15.6687 14.7102 15.957 14.5602 16.2242 14.4149C17.3633 13.7961 18.1343 13.2852 18.5187 12.8961C19.6203 11.7946 20.5953 9.42972 21.1297 6.57035C21.3617 5.32347 21.4929 4.05551 21.4976 3.00082C21.5047 2.10316 21.4226 1.55707 21.35 1.25707ZM5.8625 9.25621C5.46172 10.1492 5.09609 11.007 4.79375 11.7289C4.19844 11.4429 3.51875 11.1711 2.87891 10.9226C3.33125 10.5523 3.93125 10.1164 4.65547 9.66403C5.12891 9.36637 5.59766 9.09918 6.03594 8.87653C5.97734 9.00074 5.91875 9.12731 5.8625 9.25621ZM11.0422 19.107C11.4125 18.6523 11.8484 18.0523 12.3008 17.3304C12.5961 16.857 12.8633 16.3906 13.0883 15.9547L12.9767 16.0048L12.9766 16.0048L12.9766 16.0048C12.8932 16.0422 12.8091 16.0799 12.725 16.1187C11.8227 16.5242 10.9625 16.8922 10.2383 17.1945C10.5219 17.7898 10.7961 18.4695 11.0422 19.107ZM19.8125 2.98906C19.8078 3.94766 19.6883 5.10781 19.4727 6.25859C19.2383 7.51016 18.9055 8.68906 18.507 9.67344C18.1367 10.5898 17.7172 11.3117 17.3258 11.7008L17.3211 11.7055C17.2273 11.8016 16.8102 12.1719 15.418 12.9289C14.5086 13.4211 13.3695 13.9766 12.0289 14.5813C10.9227 15.0781 9.87734 15.5188 9.08047 15.8492L6.13672 12.8961C6.46484 12.0969 6.90781 11.0492 7.40234 9.94766C8.00938 8.6 8.56484 7.46094 9.05234 6.56094C9.80469 5.17813 10.1797 4.75391 10.2758 4.65781C10.5641 4.36953 11.0539 4.05078 11.6563 3.76016C12.3172 3.44141 13.1047 3.15313 13.9977 2.90703C15.6641 2.44063 17.5531 2.16406 19.0508 2.16406C19.3531 2.16406 19.5945 2.17578 19.7867 2.19219C19.8031 2.39844 19.8148 2.66094 19.8125 2.98906ZM1.4 18.0406C1.65078 17.2039 2.42422 16.5969 3.34063 16.5969C4.46094 16.5969 5.36797 17.5063 5.36797 18.6289C5.36797 19.5453 4.76094 20.3211 3.92891 20.5742L1.02266 21.4578C0.985156 21.4695 0.947656 21.4766 0.905469 21.4766C0.680469 21.4766 0.5 21.2938 0.5 21.0688C0.5 21.0289 0.507031 20.9891 0.51875 20.9516L1.4 18.0406Z" fill="black"/>
</svg>
