<svg width="20" height="18" viewBox="0 0 20 18" fill="none" xmlns="http://www.w3.org/2000/svg">
<path d="M10.0001 9C12.2091 9 14 6.9853 14 4.50003C14 2.0147 13.412 0 10.0001 0C6.5881 0 6 2.0147 6 4.50003C6 6.9853 7.79093 9 10.0001 9Z" fill="black"/>
<path d="M0.873753 17.6985C0.87293 17.5009 0.872107 17.6428 0.873753 17.6985V17.6985Z" fill="black"/>
<path d="M19.1257 17.8528C19.1283 17.7987 19.1266 17.4775 19.1257 17.8528V17.8528Z" fill="black"/>
<path d="M16.9922 15.6035C16.9235 11.7794 16.3579 10.6897 12.0296 10C12.0296 10 11.4203 10.6855 10.0002 10.6855C8.58004 10.6855 7.97066 10 7.97066 10C3.68954 10.6822 3.08952 11.7557 3.01062 15.4793C3.00416 15.7833 3.00116 15.7993 3 15.764C3.00026 15.8301 3.00058 15.9524 3.00058 16.1657C3.00058 16.1657 4.03105 18 10.0002 18C15.9692 18 16.9997 16.1657 16.9997 16.1657C16.9997 16.0287 16.9998 15.9334 17 15.8686C16.9988 15.8904 16.9965 15.8481 16.9922 15.6035Z" fill="black"/>
</svg>
