<svg width="24" height="20" viewBox="0 0 24 20" fill="none" xmlns="http://www.w3.org/2000/svg">
<path d="M10.6667 15.6109V14.3887H8.27778V12.0554H13.0556V10.8332H9.5C9.16667 10.8332 8.87963 10.7221 8.63889 10.4998C8.39815 10.2776 8.27778 9.99984 8.27778 9.6665V6.11095C8.27778 5.77762 8.39815 5.49984 8.63889 5.27762C8.87963 5.05539 9.16667 4.94428 9.5 4.94428H10.6667V3.72206H13.0556V4.94428H15.3889V7.27762H10.6667V8.49984H14.2222C14.5556 8.49984 14.8333 8.61095 15.0556 8.83317C15.2778 9.05539 15.3889 9.33317 15.3889 9.6665V13.2221C15.3889 13.5554 15.2778 13.8332 15.0556 14.0554C14.8333 14.2776 14.5556 14.3887 14.2222 14.3887H13.0556V15.6109H10.6667ZM21.3333 0.166504C22 0.166504 22.5648 0.397985 23.0278 0.860948C23.4907 1.32391 23.7222 1.88873 23.7222 2.55539V16.7776C23.7222 17.4443 23.4907 18.0091 23.0278 18.4721C22.5648 18.935 22 19.1665 21.3333 19.1665H2.38889C1.72222 19.1665 1.15741 18.935 0.694444 18.4721C0.231481 18.0091 0 17.4443 0 16.7776V2.55539C0 1.88873 0.231481 1.32391 0.694444 0.860948C1.15741 0.397985 1.72222 0.166504 2.38889 0.166504H21.3333ZM21.3333 16.7776V2.55539H2.38889V16.7776H21.3333Z" fill="black"/>
</svg>
