<svg width="22" height="22" viewBox="0 0 22 22" fill="none" xmlns="http://www.w3.org/2000/svg">
<path fill-rule="evenodd" clip-rule="evenodd" d="M13.7352 0.5H19.8125C20.7453 0.5 21.5 1.25469 21.5 2.1875V10.8125C21.5 11.7453 20.7453 12.5 19.8125 12.5H18.5V19.8125C18.5 20.7453 17.7453 21.5 16.8125 21.5H5.1875C4.25469 21.5 3.5 20.7453 3.5 19.8125V12.5H2.1875C1.25469 12.5 0.5 11.7453 0.5 10.8125V2.1875C0.5 1.25469 1.25469 0.5 2.1875 0.5H8.26484C8.28594 0.586719 8.31172 0.673438 8.33984 0.757812C8.71953 1.86172 9.76719 2.65625 11 2.65625C12.2328 2.65625 13.2805 1.86172 13.6602 0.757812C13.6883 0.673438 13.7141 0.586719 13.7352 0.5ZM16.7891 10.8125H19.8125V2.1875H14.8836C14.1031 3.51875 12.6547 4.41406 11 4.41406C9.34531 4.41406 7.89688 3.51875 7.11641 2.1875H2.1875V10.8125H5.21094C5.19922 10.8125 5.1875 10.8219 5.1875 10.8359V19.7891C5.1875 19.8008 5.19688 19.8125 5.21094 19.8125H16.7891C16.8008 19.8125 16.8125 19.8031 16.8125 19.7891V10.8359C16.8125 10.8242 16.8031 10.8125 16.7891 10.8125Z" fill="#2FAF62"/>
</svg>
