<svg width="14" height="14" viewBox="0 0 14 14" fill="none" xmlns="http://www.w3.org/2000/svg">
<path d="M7.75 4.00012V6.56712L9.97313 7.85062C10.1454 7.95007 10.2711 8.11389 10.3226 8.30603C10.3741 8.49816 10.3471 8.70288 10.2477 8.87515C10.1482 9.04741 9.98438 9.17312 9.79225 9.2246C9.60011 9.27609 9.39539 9.24914 9.22313 9.14968L6.625 7.64968C6.61913 7.64624 6.61388 7.64224 6.60813 7.63874C6.59517 7.6309 6.58246 7.62266 6.57 7.61406C6.5605 7.60743 6.55138 7.60031 6.54225 7.59331C6.53256 7.5858 6.52288 7.57831 6.5135 7.57031C6.50332 7.56154 6.49338 7.55249 6.48369 7.54318C6.47619 7.53599 6.46869 7.52881 6.46144 7.52137C6.45144 7.51112 6.44206 7.50056 6.43269 7.48981C6.42614 7.48227 6.41974 7.4746 6.4135 7.4668C6.40497 7.45603 6.39674 7.44503 6.38881 7.4338C6.38244 7.42488 6.37628 7.41582 6.37031 7.40662C6.36361 7.3962 6.35717 7.38562 6.351 7.37487C6.34475 7.36412 6.33875 7.35324 6.33306 7.34212C6.29998 7.27717 6.27637 7.20782 6.26294 7.13618C6.26081 7.12423 6.25898 7.11222 6.25744 7.10018C6.25588 7.08862 6.25431 7.07706 6.25331 7.06537C6.25212 7.05044 6.25137 7.03547 6.25106 7.02049C6.25088 7.01362 6.25 7.00699 6.25 7.00012V4.00012C6.25 3.80121 6.32902 3.61044 6.46967 3.46979C6.61032 3.32914 6.80109 3.25012 7 3.25012C7.19891 3.25012 7.38968 3.32914 7.53033 3.46979C7.67098 3.61044 7.75 3.80121 7.75 4.00012ZM11.4194 2.58074C10.2463 1.41042 8.657 0.753174 7 0.753174C5.343 0.753174 3.75366 1.41042 2.58063 2.58074L1.73956 3.42162V2.73224C1.73956 2.53333 1.66055 2.34256 1.51989 2.20191C1.37924 2.06126 1.18848 1.98224 0.989563 1.98224C0.790651 1.98224 0.599885 2.06126 0.459233 2.20191C0.318581 2.34256 0.239563 2.53333 0.239563 2.73224V5.23224C0.239563 5.25693 0.240813 5.28168 0.243313 5.30631C0.244375 5.31737 0.246438 5.32805 0.248001 5.33893C0.249876 5.3523 0.251438 5.36562 0.254063 5.37887C0.256563 5.39137 0.26 5.40349 0.263063 5.41574C0.265938 5.42718 0.268438 5.43874 0.271876 5.45006C0.275563 5.46212 0.28 5.47374 0.284313 5.48549C0.288313 5.49681 0.292063 5.50818 0.296688 5.51931C0.30125 5.53037 0.306625 5.54093 0.311688 5.55168C0.317063 5.56312 0.322125 5.57462 0.328125 5.58581C0.333688 5.59612 0.34 5.60593 0.345938 5.61599C0.3525 5.62693 0.358688 5.63806 0.365813 5.64874C0.373313 5.65981 0.381438 5.67018 0.389438 5.68081C0.396126 5.68974 0.402375 5.69893 0.409563 5.70768C0.424813 5.72631 0.440917 5.74414 0.457875 5.76118C0.458375 5.76162 0.45875 5.76218 0.459188 5.76262L0.460688 5.76393C0.477688 5.78089 0.4955 5.79699 0.514125 5.81224C0.523 5.81956 0.532375 5.82587 0.541438 5.83268C0.551938 5.84056 0.562188 5.84862 0.573 5.85593C0.583875 5.86318 0.595188 5.86949 0.606313 5.87612C0.616188 5.88199 0.625813 5.88824 0.635938 5.89362C0.647313 5.89974 0.659 5.90487 0.670563 5.91037C0.681188 5.91537 0.691563 5.92062 0.702438 5.92512C0.71375 5.92981 0.725376 5.93362 0.736876 5.93774C0.748438 5.94187 0.759875 5.94631 0.771688 5.94993C0.783313 5.95343 0.795188 5.95606 0.806938 5.95899C0.818875 5.96199 0.830688 5.96531 0.842813 5.96774C0.856563 5.97043 0.870438 5.97212 0.884251 5.97406C0.894626 5.97549 0.904875 5.97749 0.915375 5.97856C0.940125 5.98099 0.965 5.98231 0.989875 5.98231H3.48956C3.68848 5.98231 3.87924 5.90329 4.01989 5.76264C4.16055 5.62198 4.23956 5.43122 4.23956 5.23231C4.23956 5.03339 4.16055 4.84263 4.01989 4.70198C3.87924 4.56132 3.68848 4.48231 3.48956 4.48231H2.80019L3.64125 3.64137C4.30555 2.97707 5.15192 2.52467 6.07333 2.34139C6.99474 2.15811 7.94981 2.25217 8.81776 2.61169C9.68571 2.9712 10.4276 3.58002 10.9495 4.36116C11.4714 5.14229 11.75 6.06066 11.75 7.00012C11.75 7.93958 11.4714 8.85794 10.9495 9.63908C10.4276 10.4202 9.68571 11.029 8.81776 11.3885C7.94981 11.7481 6.99474 11.8421 6.07333 11.6588C5.15192 11.4756 4.30555 11.0232 3.64125 10.3589C3.50021 10.2201 3.31006 10.1427 3.1122 10.1435C2.91435 10.1443 2.72483 10.2233 2.58493 10.3632C2.44502 10.5031 2.36607 10.6926 2.36526 10.8904C2.36446 11.0883 2.44187 11.2785 2.58063 11.4195C3.75448 12.5831 5.34147 13.2344 6.99433 13.2307C8.64719 13.2271 10.2313 12.5689 11.4001 11.4002C12.5688 10.2314 13.227 8.64731 13.2306 6.99445C13.2343 5.34159 12.583 3.7546 11.4194 2.58074Z" fill="#BDBDBD"/>
</svg>
