<svg width="24" height="24" viewBox="0 0 24 24" fill="none" xmlns="http://www.w3.org/2000/svg">
<path fill-rule="evenodd" clip-rule="evenodd" d="M7.60667 9.5L6.74952 18.5H17.2507L16.3936 9.5H7.60667ZM7.15202 7C6.12091 7 5.25879 7.78391 5.16103 8.81038L4.20865 18.8104C4.09682 19.9846 5.02016 21 6.19964 21H17.8006C18.9801 21 19.9034 19.9846 19.7916 18.8104L18.8392 8.81038C18.7414 7.78391 17.8793 7 16.8482 7H7.15202Z" fill="#111E16"/>
<path d="M10 7C10 5.89543 10.8954 5 12 5C13.1046 5 14 5.89543 14 7H16C16 4.79086 14.2091 3 12 3C9.79086 3 8 4.79086 8 7H10Z" fill="#111E16"/>
</svg>
