<svg width="18" height="18" viewBox="0 0 18 18" fill="none" xmlns="http://www.w3.org/2000/svg">
<path d="M9.00008 15.6667C10.7682 15.6667 12.4639 14.9643 13.7141 13.7141C14.9644 12.4638 15.6667 10.7681 15.6667 9.00002C15.6667 7.23191 14.9644 5.53622 13.7141 4.28598C12.4639 3.03573 10.7682 2.33335 9.00008 2.33335C7.23197 2.33335 5.53628 3.03573 4.28604 4.28598C3.03579 5.53622 2.33341 7.23191 2.33341 9.00002C2.33341 10.7681 3.03579 12.4638 4.28604 13.7141C5.53628 14.9643 7.23197 15.6667 9.00008 15.6667ZM9.00008 17.3334C4.39758 17.3334 0.666748 13.6025 0.666748 9.00002C0.666748 4.39752 4.39758 0.666687 9.00008 0.666687C13.6026 0.666687 17.3334 4.39752 17.3334 9.00002C17.3334 13.6025 13.6026 17.3334 9.00008 17.3334ZM8.16675 12.3334H9.83341V14H8.16675V12.3334ZM8.16675 4.00002H9.83341V10.6667H8.16675V4.00002Z" fill="#2F80ED"/>
</svg>
