<svg width="24" height="17" viewBox="0 0 24 17" fill="none" xmlns="http://www.w3.org/2000/svg">
<path d="M22.8 0.200195H1.2C0.537375 0.200195 0 0.73757 0 1.4002V15.8002C0 16.4628 0.537375 17.0002 1.2 17.0002H22.8C23.4626 17.0002 24 16.4628 24 15.8002V1.4002C24 0.73757 23.4626 0.200195 22.8 0.200195ZM6.6 11.2957V11.9002C6.6 12.0659 6.46575 12.2002 6.3 12.2002H5.7C5.53425 12.2002 5.4 12.0659 5.4 11.9002V11.2893C4.97662 11.2676 4.56488 11.1198 4.22363 10.8637C4.07737 10.7538 4.06988 10.5348 4.20225 10.4084L4.64288 9.98807C4.74675 9.88907 4.90125 9.88457 5.02275 9.96069C5.16788 10.0514 5.3325 10.1002 5.5035 10.1002H6.55763C6.80137 10.1002 7.00013 9.87819 7.00013 9.60557C7.00013 9.38244 6.86475 9.18594 6.67125 9.12819L4.98375 8.62194C4.28662 8.41269 3.7995 7.74369 3.7995 6.99482C3.7995 6.07532 4.51388 5.32832 5.39963 5.30469V4.70019C5.39963 4.53445 5.53388 4.4002 5.69963 4.4002H6.29963C6.46538 4.4002 6.59963 4.53445 6.59963 4.70019V5.31107C7.023 5.33282 7.43475 5.4802 7.776 5.73669C7.92225 5.84657 7.92975 6.06557 7.79738 6.19195L7.35675 6.61232C7.25287 6.71132 7.09838 6.71582 6.97688 6.6397C6.83175 6.54857 6.66713 6.5002 6.49613 6.5002H5.442C5.19825 6.5002 4.9995 6.7222 4.9995 6.99482C4.9995 7.21795 5.13488 7.41444 5.32837 7.47219L7.01588 7.97844C7.713 8.18769 8.20013 8.8567 8.20013 9.60557C8.20013 10.5254 7.48575 11.2721 6.6 11.2957ZM15.6 10.7002C15.6 10.8659 15.4658 11.0002 15.3 11.0002H11.1C10.9343 11.0002 10.8 10.8659 10.8 10.7002V10.1002C10.8 9.93444 10.9343 9.80019 11.1 9.80019H15.3C15.4658 9.80019 15.6 9.93444 15.6 10.1002V10.7002ZM21.6 10.7002C21.6 10.8659 21.4658 11.0002 21.3 11.0002H18.3C18.1343 11.0002 18 10.8659 18 10.7002V10.1002C18 9.93444 18.1343 9.80019 18.3 9.80019H21.3C21.4658 9.80019 21.6 9.93444 21.6 10.1002V10.7002ZM21.6 7.10019C21.6 7.26594 21.4658 7.4002 21.3 7.4002H11.1C10.9343 7.4002 10.8 7.26594 10.8 7.10019V6.5002C10.8 6.33444 10.9343 6.20019 11.1 6.20019H21.3C21.4658 6.20019 21.6 6.33444 21.6 6.5002V7.10019Z" fill="#111E16"/>
</svg>
