<svg width="24" height="24" viewBox="0 0 24 24" fill="none" xmlns="http://www.w3.org/2000/svg">
<g clip-path="url(#clip0)">
<path d="M20.4131 0C20.0183 0 3.78708 0 3.58707 0C3.15488 0 2.80444 0.350391 2.80444 0.782625V23.2174C2.80444 23.6496 3.15483 24 3.58707 24H20.4132C20.8454 24 21.1958 23.6497 21.1958 23.2174V0.782625C21.1958 0.350391 20.8454 0 20.4131 0ZM9.99713 1.5652H14.0031V2.57227H9.99713V1.5652ZM19.6306 22.4348H4.36965V1.5652H8.43193V3.35489C8.43193 3.78708 8.78232 4.13752 9.21455 4.13752H14.7857C15.2179 4.13752 15.5684 3.78712 15.5684 3.35489V1.5652H19.6306V22.4348Z" fill="#888E8A"/>
<path d="M16.4869 7.44104H7.51297C7.08078 7.44104 6.73035 7.79143 6.73035 8.22367C6.73035 8.6559 7.08074 9.00629 7.51297 9.00629H16.4869C16.9191 9.00629 17.2695 8.6559 17.2695 8.22367C17.2695 7.79143 16.9191 7.44104 16.4869 7.44104Z" fill="#888E8A"/>
<path d="M16.4869 12.5036H7.51297C7.08078 12.5036 6.73035 12.854 6.73035 13.2862C6.73035 13.7185 7.08074 14.0689 7.51297 14.0689H16.4869C16.9191 14.0689 17.2695 13.7185 17.2695 13.2862C17.2695 12.854 16.9191 12.5036 16.4869 12.5036Z" fill="#888E8A"/>
<path d="M16.4869 17.5661H7.51297C7.08078 17.5661 6.73035 17.9165 6.73035 18.3487C6.73035 18.781 7.08074 19.1314 7.51297 19.1314H16.4869C16.9191 19.1314 17.2695 18.781 17.2695 18.3487C17.2695 17.9165 16.9191 17.5661 16.4869 17.5661Z" fill="#888E8A"/>
</g>
<defs>
<clipPath id="clip0">
<rect width="24" height="24" fill="white"/>
</clipPath>
</defs>
</svg>
