<svg width="14" height="14" viewBox="0 0 14 14" fill="none" xmlns="http://www.w3.org/2000/svg">
<path d="M10.1181 8.93971C10.7742 8.04372 11.1667 6.94316 11.1667 5.75006C11.1667 2.7634 8.73664 0.333374 5.75 0.333374C2.76336 0.333374 0.333374 2.7634 0.333374 5.75006C0.333374 8.73672 2.76339 11.1667 5.75003 11.1667C6.94312 11.1667 8.04378 10.7742 8.93976 10.1181L11.8991 13.0775C12.2245 13.4029 12.7521 13.4029 13.0775 13.0775C13.4029 12.7521 13.4029 12.2245 13.0775 11.8991L10.1181 8.93971ZM5.75003 9.50006C3.68216 9.50006 2.00005 7.81794 2.00005 5.75006C2.00005 3.68218 3.68216 2.00006 5.75003 2.00006C7.8179 2.00006 9.50001 3.68218 9.50001 5.75006C9.50001 7.81794 7.81787 9.50006 5.75003 9.50006Z" fill="#888E8A"/>
</svg>
