<svg width="24" height="24" viewBox="0 0 24 24" fill="none" xmlns="http://www.w3.org/2000/svg">
<path fill-rule="evenodd" clip-rule="evenodd" d="M7.60654 9.5L6.7494 18.5H17.2506L16.3934 9.5H7.60654ZM7.1519 7C6.12078 7 5.25867 7.78391 5.16091 8.81038L4.20853 18.8104C4.0967 19.9846 5.02004 21 6.19952 21H17.8005C18.9799 21 19.9033 19.9846 19.7915 18.8104L18.8391 8.81038C18.7413 7.78391 17.8792 7 16.8481 7H7.1519Z" fill="#2FAF62"/>
<path d="M10 7C10 5.89543 10.8954 5 12 5C13.1046 5 14 5.89543 14 7H16C16 4.79086 14.2091 3 12 3C9.79086 3 8 4.79086 8 7H10Z" fill="#2FAF62"/>
</svg>
