<svg width="14" height="14" viewBox="0 0 14 14" fill="none" xmlns="http://www.w3.org/2000/svg">
<path d="M1.29403 5.63659C0.716326 6.21356 0.374266 6.98504 0.334574 7.80056C0.294883 8.61608 0.560406 9.41713 1.07935 10.0475C1.5983 10.6778 2.33345 11.0923 3.14141 11.2099C3.94937 11.3276 4.77219 11.1401 5.44937 10.6839L8.2867 13.5219C8.37832 13.6156 8.5022 13.6709 8.63313 13.6765C8.76406 13.6821 8.8922 13.6376 8.99149 13.5521C9.09078 13.4665 9.15376 13.3464 9.1676 13.2161C9.18145 13.0858 9.14513 12.9551 9.06603 12.8506L9.01603 12.7926L6.20403 9.98059C6.71584 9.32126 6.95746 8.49182 6.87978 7.66078C6.80211 6.82974 6.41098 6.05944 5.78586 5.50638C5.16073 4.95331 4.3485 4.65897 3.51419 4.68316C2.67988 4.70734 1.88607 5.04824 1.29403 5.63659ZM10.1027 9.99992C9.9527 10.8579 9.73737 11.6373 9.46803 12.3026L9.48737 12.3213L9.5707 12.4146C9.71737 12.6113 9.80003 12.8306 9.8227 13.0493C11.1857 12.4156 12.2956 11.3415 12.9734 9.99992H10.1027ZM7.1667 9.99925L8.68937 11.5239C8.82403 11.1239 8.94337 10.6786 9.0427 10.1959L9.0807 9.99992L7.16737 9.99925H7.1667ZM5.20937 6.36592C5.42376 6.574 5.59464 6.82263 5.71205 7.09736C5.82947 7.37209 5.89107 7.66742 5.89329 7.96618C5.89551 8.26494 5.83829 8.56116 5.72497 8.8376C5.61165 9.11404 5.44448 9.36519 5.2332 9.57643C5.02192 9.78766 4.77074 9.95478 4.49427 10.068C4.21781 10.1813 3.92158 10.2385 3.62282 10.2362C3.32406 10.2339 3.02874 10.1722 2.75404 10.0548C2.47933 9.93728 2.23073 9.76636 2.0227 9.55192C1.60304 9.12873 1.36813 8.55652 1.36937 7.96054C1.37062 7.36455 1.60793 6.79333 2.02935 6.3719C2.45078 5.95048 3.022 5.71317 3.61799 5.71192C4.21397 5.71068 4.78618 5.94559 5.20937 6.36525V6.36592ZM9.30003 5.66592H6.83337C7.17296 6.14291 7.40244 6.68933 7.50528 7.26576C7.60811 7.84219 7.58173 8.43425 7.42803 8.99925L9.2347 8.99992C9.35113 8.0017 9.38058 6.99524 9.3227 5.99192L9.30003 5.66592ZM10.3047 5.66592C10.3745 6.6472 10.3672 7.63245 10.2827 8.61259L10.2447 8.99925H13.3794C13.7171 7.92046 13.7762 6.77374 13.5514 5.66592H10.3047ZM8.90803 0.603919C9.4947 1.50392 9.93203 2.82325 10.1634 4.37325L10.2047 4.66659H13.2647C12.9197 3.74579 12.3758 2.91243 11.6718 2.22587C10.9679 1.53932 10.1212 1.01647 9.19203 0.694585L8.98937 0.627919L8.90803 0.603919ZM7.01737 0.333252C6.16603 0.333252 5.31003 1.92125 4.91203 4.22592C5.22137 4.33259 5.52003 4.47925 5.79937 4.66459L9.19137 4.66525C8.83137 2.12592 7.92137 0.333252 7.01737 0.333252ZM5.12603 0.603252C4.13526 0.897442 3.22619 1.41736 2.47025 2.12217C1.71432 2.82698 1.13211 3.69747 0.769367 4.66525H1.4327C2.16884 4.17699 3.04748 3.94976 3.92803 4.01992C4.1427 2.78125 4.49203 1.70659 4.94603 0.899919L5.05403 0.716585L5.12603 0.603252Z" fill="#2FAF62"/>
</svg>
