<svg width="20" height="20" viewBox="0 0 20 20" fill="none" xmlns="http://www.w3.org/2000/svg">
<path d="M17.3049 0H2.69519C1.20679 0 0.000152588 1.20659 0.000152588 2.69504V17.3049C0.000152588 18.7933 1.20674 19.9999 2.69519 19.9999H9.90064L9.91292 12.853H8.05616C7.81486 12.853 7.61902 12.6579 7.61809 12.4166L7.60918 10.1129C7.60825 9.87025 7.80469 9.67308 8.04731 9.67308H9.90069V7.44709C9.90069 4.86384 11.4784 3.45724 13.7828 3.45724H15.6738C15.9157 3.45724 16.1119 3.65339 16.1119 3.89537V5.83789C16.1119 6.07978 15.9158 6.27587 15.674 6.27602L14.5135 6.27655C13.2603 6.27655 13.0177 6.87207 13.0177 7.74602V9.67313H15.7714C16.0338 9.67313 16.2374 9.90225 16.2064 10.1628L15.9334 12.4666C15.9073 12.687 15.7203 12.8531 15.4984 12.8531H13.0299L13.0177 20H17.305C18.7934 20 20 18.7934 20 17.305V2.69504C20 1.20659 18.7934 0 17.3049 0Z" fill="#3E57A8"/>
</svg>
